<svg xmlns="http://www.w3.org/2000/svg" xmlns:xlink="http://www.w3.org/1999/xlink" width="460" height="737" contentScriptType="application/ecmascript" contentStyleType="text/css" style="width:460px;height:737px" preserveAspectRatio="none" version="1.1" viewBox="0 0 460 737" zoomAndPan="magnify"><defs><filter id="fhsszeetj8aax" width="300%" height="300%" x="-1" y="-1"><feGaussianBlur result="blurOut" stdDeviation="2"/><feColorMatrix in="blurOut" result="blurOut2" type="matrix" values="0 0 0 0 0 0 0 0 0 0 0 0 0 0 0 0 0 0 .4 0"/><feOffset dx="4" dy="4" in="blurOut2" result="blurOut3"/><feBlend in="SourceGraphic" in2="blurOut3" mode="normal"/></filter></defs><g><ellipse cx="221.5" cy="20" fill="#000" filter="url(#fhsszeetj8aax)" rx="10" ry="10" style="stroke:none;stroke-width:1"/><rect style="stroke:#a80036;stroke-width:1.5" width="118" height="34.133" x="162.5" y="50" fill="#FEFECE" filter="url(#fhsszeetj8aax)" rx="12.5" ry="12.5"/><text x="172.5" y="71.602" fill="#000" font-family="sans-serif" font-size="12" lengthAdjust="spacingAndGlyphs" textLength="98">Cluster controller</text><rect style="stroke:#a80036;stroke-width:1.5" width="270" height="34.133" x="86.5" y="148.133" fill="#FEFECE" filter="url(#fhsszeetj8aax)" rx="12.5" ry="12.5"/><text x="96.5" y="169.734" fill="#000" font-family="sans-serif" font-size="12" lengthAdjust="spacingAndGlyphs" textLength="250">Cluster controller enqueues a Reconcile call</text><rect style="stroke:#a80036;stroke-width:1.5" width="239" height="34.133" x="102" y="250.743" fill="#ADD8E6" filter="url(#fhsszeetj8aax)" rx="12.5" ry="12.5"/><text x="112" y="272.345" fill="#000" font-family="sans-serif" font-size="12" lengthAdjust="spacingAndGlyphs" textLength="219">Get control plane machines for cluster</text><polygon fill="#FEFECE" points="134 304.876 309 304.876 321 316.876 309 328.876 134 328.876 122 316.876 134 304.876" filter="url(#fhsszeetj8aax)" style="stroke:#a80036;stroke-width:1.5"/><text x="134" y="321.033" fill="#000" font-family="sans-serif" font-size="11" lengthAdjust="spacingAndGlyphs" textLength="175">A control plane machine is ready</text><text x="104" y="314.556" fill="#000" font-family="sans-serif" font-size="11" lengthAdjust="spacingAndGlyphs" textLength="18">yes</text><text x="321" y="314.556" fill="#000" font-family="sans-serif" font-size="11" lengthAdjust="spacingAndGlyphs" textLength="14">no</text><rect style="stroke:#a80036;stroke-width:1.5" width="185" height="34.133" x="19.5" y="338.876" fill="#ADD8E6" filter="url(#fhsszeetj8aax)" rx="12.5" ry="12.5"/><text x="29.5" y="360.478" fill="#000" font-family="sans-serif" font-size="12" lengthAdjust="spacingAndGlyphs" textLength="165">Set Cluster Ready annotation</text><rect style="stroke:#a80036;stroke-width:1.5" width="204" height="34.133" x="10" y="393.009" fill="#ADD8E6" filter="url(#fhsszeetj8aax)" rx="12.5" ry="12.5"/><text x="20" y="414.61" fill="#000" font-family="sans-serif" font-size="12" lengthAdjust="spacingAndGlyphs" textLength="184">Patch Cluster back to API server</text><rect style="stroke:#a80036;stroke-width:1.5" width="142" height="34.133" x="260" y="338.876" fill="pink" filter="url(#fhsszeetj8aax)" rx="12.5" ry="12.5"/><text x="270" y="360.478" fill="#000" font-family="sans-serif" font-size="12" lengthAdjust="spacingAndGlyphs" textLength="122">Return RequeueError</text><polygon fill="#FEFECE" points="221.5 433.142 233.5 445.142 221.5 457.142 209.5 445.142 221.5 433.142" filter="url(#fhsszeetj8aax)" style="stroke:#a80036;stroke-width:1.5"/><polygon fill="#FEFECE" points="144 202.266 299 202.266 311 214.266 299 226.266 144 226.266 132 214.266 144 202.266" filter="url(#fhsszeetj8aax)" style="stroke:#a80036;stroke-width:1.5"/><text x="225.5" y="236.9" fill="#000" font-family="sans-serif" font-size="11" lengthAdjust="spacingAndGlyphs" textLength="14">no</text><text x="144" y="218.423" fill="#000" font-family="sans-serif" font-size="11" lengthAdjust="spacingAndGlyphs" textLength="155">Cluster has ready annotation</text><polygon fill="#FEFECE" points="221.5 477.142 233.5 489.142 221.5 501.142 209.5 489.142 221.5 477.142" filter="url(#fhsszeetj8aax)" style="stroke:#a80036;stroke-width:1.5"/><polygon fill="#FEFECE" points="221.5 104.133 233.5 116.133 221.5 128.133 209.5 116.133 221.5 104.133" filter="url(#fhsszeetj8aax)" style="stroke:#a80036;stroke-width:1.5"/><polygon fill="#FEFECE" points="132.5 521.142 310.5 521.142 322.5 533.142 310.5 545.142 132.5 545.142 120.5 533.142 132.5 521.142" filter="url(#fhsszeetj8aax)" style="stroke:#a80036;stroke-width:1.5"/><text x="132.5" y="537.299" fill="#000" font-family="sans-serif" font-size="11" lengthAdjust="spacingAndGlyphs" textLength="178">Reconcile returned RequeueError</text><text x="322.5" y="530.821" fill="#000" font-family="sans-serif" font-size="11" lengthAdjust="spacingAndGlyphs" textLength="18">yes</text><polygon fill="#FEFECE" points="155.5 586.417 287.5 586.417 299.5 598.417 287.5 610.417 155.5 610.417 143.5 598.417 155.5 586.417" filter="url(#fhsszeetj8aax)" style="stroke:#a80036;stroke-width:1.5"/><text x="155.5" y="602.574" fill="#000" font-family="sans-serif" font-size="11" lengthAdjust="spacingAndGlyphs" textLength="132">Reconcile returned error</text><text x="125.5" y="596.097" fill="#000" font-family="sans-serif" font-size="11" lengthAdjust="spacingAndGlyphs" textLength="18">yes</text><text x="299.5" y="596.097" fill="#000" font-family="sans-serif" font-size="11" lengthAdjust="spacingAndGlyphs" textLength="14">no</text><rect style="stroke:#a80036;stroke-width:1.5" width="156" height="34.133" x="55.5" y="620.417" fill="pink" filter="url(#fhsszeetj8aax)" rx="12.5" ry="12.5"/><text x="65.5" y="642.019" fill="#000" font-family="sans-serif" font-size="12" lengthAdjust="spacingAndGlyphs" textLength="136">Error reconciling cluster</text><rect style="stroke:#a80036;stroke-width:1.5" width="110" height="34.133" x="254.5" y="620.417" fill="#ADD8E6" filter="url(#fhsszeetj8aax)" rx="12.5" ry="12.5"/><text x="264.5" y="642.019" fill="#000" font-family="sans-serif" font-size="12" lengthAdjust="spacingAndGlyphs" textLength="90">Cluster is ready</text><polygon fill="#FEFECE" points="221.5 660.55 233.5 672.55 221.5 684.55 209.5 672.55 221.5 660.55" filter="url(#fhsszeetj8aax)" style="stroke:#a80036;stroke-width:1.5"/><ellipse cx="221.5" cy="715.55" fill="#FFF" filter="url(#fhsszeetj8aax)" rx="11" ry="11" style="stroke:#000;stroke-width:1"/><ellipse cx="221.5" cy="715.55" fill="#000" rx="6" ry="6" style="stroke:#7f7f7f;stroke-width:1"/><line style="stroke:#a80036;stroke-width:1.5" x1="221.5" x2="221.5" y1="30" y2="50"/><polygon fill="#A80036" points="217.5 40 221.5 50 225.5 40 221.5 44" style="stroke:#a80036;stroke-width:1"/><line style="stroke:#a80036;stroke-width:1.5" x1="112" x2="112" y1="373.009" y2="393.009"/><polygon fill="#A80036" points="108 383.009 112 393.009 116 383.009 112 387.009" style="stroke:#a80036;stroke-width:1"/><line style="stroke:#a80036;stroke-width:1.5" x1="122" x2="112" y1="316.876" y2="316.876"/><line style="stroke:#a80036;stroke-width:1.5" x1="112" x2="112" y1="316.876" y2="338.876"/><polygon fill="#A80036" points="108 328.876 112 338.876 116 328.876 112 332.876" style="stroke:#a80036;stroke-width:1"/><line style="stroke:#a80036;stroke-width:1.5" x1="321" x2="331" y1="316.876" y2="316.876"/><line style="stroke:#a80036;stroke-width:1.5" x1="331" x2="331" y1="316.876" y2="338.876"/><polygon fill="#A80036" points="327 328.876 331 338.876 335 328.876 331 332.876" style="stroke:#a80036;stroke-width:1"/><line style="stroke:#a80036;stroke-width:1.5" x1="112" x2="112" y1="427.142" y2="445.142"/><line style="stroke:#a80036;stroke-width:1.5" x1="112" x2="209.5" y1="445.142" y2="445.142"/><polygon fill="#A80036" points="199.5 441.142 209.5 445.142 199.5 449.142 203.5 445.142" style="stroke:#a80036;stroke-width:1"/><line style="stroke:#a80036;stroke-width:1.5" x1="331" x2="331" y1="373.009" y2="445.142"/><line style="stroke:#a80036;stroke-width:1.5" x1="331" x2="233.5" y1="445.142" y2="445.142"/><polygon fill="#A80036" points="243.5 441.142 233.5 445.142 243.5 449.142 239.5 445.142" style="stroke:#a80036;stroke-width:1"/><line style="stroke:#a80036;stroke-width:1.5" x1="221.5" x2="221.5" y1="284.876" y2="304.876"/><polygon fill="#A80036" points="217.5 294.876 221.5 304.876 225.5 294.876 221.5 298.876" style="stroke:#a80036;stroke-width:1"/><line style="stroke:#a80036;stroke-width:1.5" x1="221.5" x2="221.5" y1="226.266" y2="250.743"/><polygon fill="#A80036" points="217.5 240.743 221.5 250.743 225.5 240.743 221.5 244.743" style="stroke:#a80036;stroke-width:1"/><line style="stroke:#a80036;stroke-width:1.5" x1="311" x2="416" y1="214.266" y2="214.266"/><polygon fill="#A80036" points="412 343.942 416 353.942 420 343.942 416 347.942" style="stroke:#a80036;stroke-width:1.5"/><line style="stroke:#a80036;stroke-width:1.5" x1="416" x2="416" y1="214.266" y2="489.142"/><line style="stroke:#a80036;stroke-width:1.5" x1="416" x2="233.5" y1="489.142" y2="489.142"/><polygon fill="#A80036" points="243.5 485.142 233.5 489.142 243.5 493.142 239.5 489.142" style="stroke:#a80036;stroke-width:1"/><line style="stroke:#a80036;stroke-width:1.5" x1="221.5" x2="221.5" y1="457.142" y2="477.142"/><polygon fill="#A80036" points="217.5 467.142 221.5 477.142 225.5 467.142 221.5 471.142" style="stroke:#a80036;stroke-width:1"/><line style="stroke:#a80036;stroke-width:1.5" x1="221.5" x2="221.5" y1="182.266" y2="202.266"/><polygon fill="#A80036" points="217.5 192.266 221.5 202.266 225.5 192.266 221.5 196.266" style="stroke:#a80036;stroke-width:1"/><line style="stroke:#a80036;stroke-width:1.5" x1="221.5" x2="221.5" y1="128.133" y2="148.133"/><polygon fill="#A80036" points="217.5 138.133 221.5 148.133 225.5 138.133 221.5 142.133" style="stroke:#a80036;stroke-width:1"/><line style="stroke:#a80036;stroke-width:1.5" x1="322.5" x2="434" y1="533.142" y2="533.142"/><polygon fill="#A80036" points="430 329.376 434 319.376 438 329.376 434 325.376" style="stroke:#a80036;stroke-width:1.5"/><line style="stroke:#a80036;stroke-width:1.5" x1="434" x2="434" y1="116.133" y2="533.142"/><line style="stroke:#a80036;stroke-width:1.5" x1="434" x2="233.5" y1="116.133" y2="116.133"/><polygon fill="#A80036" points="243.5 112.133 233.5 116.133 243.5 120.133 239.5 116.133" style="stroke:#a80036;stroke-width:1"/><line style="stroke:#a80036;stroke-width:1.5" x1="221.5" x2="221.5" y1="501.142" y2="521.142"/><polygon fill="#A80036" points="217.5 511.142 221.5 521.142 225.5 511.142 221.5 515.142" style="stroke:#a80036;stroke-width:1"/><line style="stroke:#a80036;stroke-width:1.5" x1="221.5" x2="221.5" y1="84.133" y2="104.133"/><polygon fill="#A80036" points="217.5 94.133 221.5 104.133 225.5 94.133 221.5 98.133" style="stroke:#a80036;stroke-width:1"/><line style="stroke:#a80036;stroke-width:1.5" x1="143.5" x2="133.5" y1="598.417" y2="598.417"/><line style="stroke:#a80036;stroke-width:1.5" x1="133.5" x2="133.5" y1="598.417" y2="620.417"/><polygon fill="#A80036" points="129.5 610.417 133.5 620.417 137.5 610.417 133.5 614.417" style="stroke:#a80036;stroke-width:1"/><line style="stroke:#a80036;stroke-width:1.5" x1="299.5" x2="309.5" y1="598.417" y2="598.417"/><line style="stroke:#a80036;stroke-width:1.5" x1="309.5" x2="309.5" y1="598.417" y2="620.417"/><polygon fill="#A80036" points="305.5 610.417 309.5 620.417 313.5 610.417 309.5 614.417" style="stroke:#a80036;stroke-width:1"/><line style="stroke:#a80036;stroke-width:1.5" x1="133.5" x2="133.5" y1="654.55" y2="672.55"/><line style="stroke:#a80036;stroke-width:1.5" x1="133.5" x2="209.5" y1="672.55" y2="672.55"/><polygon fill="#A80036" points="199.5 668.55 209.5 672.55 199.5 676.55 203.5 672.55" style="stroke:#a80036;stroke-width:1"/><line style="stroke:#a80036;stroke-width:1.5" x1="309.5" x2="309.5" y1="654.55" y2="672.55"/><line style="stroke:#a80036;stroke-width:1.5" x1="309.5" x2="233.5" y1="672.55" y2="672.55"/><polygon fill="#A80036" points="243.5 668.55 233.5 672.55 243.5 676.55 239.5 672.55" style="stroke:#a80036;stroke-width:1"/><line style="stroke:#a80036;stroke-width:1.5" x1="221.5" x2="221.5" y1="545.142" y2="586.417"/><polygon fill="#A80036" points="217.5 576.417 221.5 586.417 225.5 576.417 221.5 580.417" style="stroke:#a80036;stroke-width:1"/><text x="225.5" y="566.597" fill="#000" font-family="sans-serif" font-size="11" lengthAdjust="spacingAndGlyphs" textLength="14">no</text><line style="stroke:#a80036;stroke-width:1.5" x1="221.5" x2="221.5" y1="684.55" y2="704.55"/><polygon fill="#A80036" points="217.5 694.55 221.5 704.55 225.5 694.55 221.5 698.55" style="stroke:#a80036;stroke-width:1"/></g></svg>