<svg xmlns="http://www.w3.org/2000/svg" xmlns:xlink="http://www.w3.org/1999/xlink" width="1093" height="842" contentScriptType="application/ecmascript" contentStyleType="text/css" style="width:1093px;height:842px" preserveAspectRatio="none" version="1.1" viewBox="0 0 1093 842" zoomAndPan="magnify"><defs><filter id="faaxcmrssfyxv" width="300%" height="300%" x="-1" y="-1"><feGaussianBlur result="blurOut" stdDeviation="2"/><feColorMatrix in="blurOut" result="blurOut2" type="matrix" values="0 0 0 0 0 0 0 0 0 0 0 0 0 0 0 0 0 0 .4 0"/><feOffset dx="4" dy="4" in="blurOut2" result="blurOut3"/><feBlend in="SourceGraphic" in2="blurOut3" mode="normal"/></filter></defs><g><ellipse cx="507.5" cy="20" fill="#000" filter="url(#faaxcmrssfyxv)" rx="10" ry="10" style="stroke:none;stroke-width:1"/><rect style="stroke:#a80036;stroke-width:1.5" width="125" height="34.133" x="445" y="50" fill="#FEFECE" filter="url(#faaxcmrssfyxv)" rx="12.5" ry="12.5"/><text x="455" y="71.602" fill="#000" font-family="sans-serif" font-size="12" lengthAdjust="spacingAndGlyphs" textLength="105">Machine controller</text><rect style="stroke:#a80036;stroke-width:1.5" width="261" height="34.133" x="377" y="148.133" fill="#FEFECE" filter="url(#faaxcmrssfyxv)" rx="12.5" ry="12.5"/><text x="387" y="169.734" fill="#000" font-family="sans-serif" font-size="12" lengthAdjust="spacingAndGlyphs" textLength="241">Machine controller enqueues a Create call</text><polygon fill="#FEFECE" points="430 202.266 585 202.266 597 214.266 585 226.266 430 226.266 418 214.266 430 202.266" filter="url(#faaxcmrssfyxv)" style="stroke:#a80036;stroke-width:1.5"/><text x="430" y="218.423" fill="#000" font-family="sans-serif" font-size="11" lengthAdjust="spacingAndGlyphs" textLength="155">Cluster has ready annotation</text><text x="400" y="211.945" fill="#000" font-family="sans-serif" font-size="11" lengthAdjust="spacingAndGlyphs" textLength="18">yes</text><text x="597" y="211.945" fill="#000" font-family="sans-serif" font-size="11" lengthAdjust="spacingAndGlyphs" textLength="14">no</text><polygon fill="#FEFECE" points="127 236.266 291 236.266 303 248.266 291 260.266 127 260.266 115 248.266 127 236.266" filter="url(#faaxcmrssfyxv)" style="stroke:#a80036;stroke-width:1.5"/><text x="127" y="252.423" fill="#000" font-family="sans-serif" font-size="11" lengthAdjust="spacingAndGlyphs" textLength="164">Machine has control plane role</text><text x="97" y="245.945" fill="#000" font-family="sans-serif" font-size="11" lengthAdjust="spacingAndGlyphs" textLength="18">yes</text><text x="303" y="245.945" fill="#000" font-family="sans-serif" font-size="11" lengthAdjust="spacingAndGlyphs" textLength="14">no</text><rect style="stroke:#a80036;stroke-width:1.5" width="190" height="34.133" x="10" y="270.266" fill="#ADD8E6" filter="url(#faaxcmrssfyxv)" rx="12.5" ry="12.5"/><text x="20" y="291.867" fill="#000" font-family="sans-serif" font-size="12" lengthAdjust="spacingAndGlyphs" textLength="170">Join as control plane member</text><rect style="stroke:#a80036;stroke-width:1.5" width="135" height="34.133" x="245.5" y="270.266" fill="#ADD8E6" filter="url(#faaxcmrssfyxv)" rx="12.5" ry="12.5"/><text x="255.5" y="291.867" fill="#000" font-family="sans-serif" font-size="12" lengthAdjust="spacingAndGlyphs" textLength="115">Join as worker node</text><polygon fill="#FEFECE" points="209 310.398 221 322.398 209 334.398 197 322.398 209 310.398" filter="url(#faaxcmrssfyxv)" style="stroke:#a80036;stroke-width:1.5"/><polygon fill="#FEFECE" points="724 236.266 888 236.266 900 248.266 888 260.266 724 260.266 712 248.266 724 236.266" filter="url(#faaxcmrssfyxv)" style="stroke:#a80036;stroke-width:1.5"/><text x="724" y="252.423" fill="#000" font-family="sans-serif" font-size="11" lengthAdjust="spacingAndGlyphs" textLength="164">Machine has control plane role</text><text x="694" y="245.945" fill="#000" font-family="sans-serif" font-size="11" lengthAdjust="spacingAndGlyphs" textLength="18">yes</text><text x="900" y="245.945" fill="#000" font-family="sans-serif" font-size="11" lengthAdjust="spacingAndGlyphs" textLength="14">no</text><rect style="stroke:#a80036;stroke-width:1.5" width="205" height="34.133" x="527.5" y="270.266" fill="#ADD8E6" filter="url(#faaxcmrssfyxv)" rx="12.5" ry="12.5"/><text x="537.5" y="291.867" fill="#000" font-family="sans-serif" font-size="12" lengthAdjust="spacingAndGlyphs" textLength="185">Create control plane config map</text><polygon fill="#FEFECE" points="523.5 339.398 736.5 339.398 748.5 351.398 736.5 363.398 523.5 363.398 511.5 351.398 523.5 339.398" filter="url(#faaxcmrssfyxv)" style="stroke:#a80036;stroke-width:1.5"/><text x="523.5" y="355.556" fill="#000" font-family="sans-serif" font-size="11" lengthAdjust="spacingAndGlyphs" textLength="213">Control plane config map already exists</text><text x="493.5" y="349.078" fill="#000" font-family="sans-serif" font-size="11" lengthAdjust="spacingAndGlyphs" textLength="18">yes</text><text x="748.5" y="349.078" fill="#000" font-family="sans-serif" font-size="11" lengthAdjust="spacingAndGlyphs" textLength="14">no</text><rect style="stroke:#a80036;stroke-width:1.5" width="142" height="34.133" x="430.5" y="373.398" fill="pink" filter="url(#faaxcmrssfyxv)" rx="12.5" ry="12.5"/><text x="440.5" y="395" fill="#000" font-family="sans-serif" font-size="12" lengthAdjust="spacingAndGlyphs" textLength="122">Return RequeueError</text><rect style="stroke:#a80036;stroke-width:1.5" width="116" height="34.133" x="700.5" y="373.398" fill="#ADD8E6" filter="url(#faaxcmrssfyxv)" rx="12.5" ry="12.5"/><text x="710.5" y="395" fill="#000" font-family="sans-serif" font-size="12" lengthAdjust="spacingAndGlyphs" textLength="96">Init control plane</text><rect style="stroke:#a80036;stroke-width:1.5" width="245" height="34.133" x="636" y="427.531" fill="#ADD8E6" filter="url(#faaxcmrssfyxv)" rx="12.5" ry="12.5"/><text x="646" y="449.133" fill="#000" font-family="sans-serif" font-size="12" lengthAdjust="spacingAndGlyphs" textLength="225">Set ready status on Machine annotation</text><rect style="stroke:#a80036;stroke-width:1.5" width="211" height="34.133" x="653" y="481.664" fill="#ADD8E6" filter="url(#faaxcmrssfyxv)" rx="12.5" ry="12.5"/><text x="663" y="503.266" fill="#000" font-family="sans-serif" font-size="12" lengthAdjust="spacingAndGlyphs" textLength="191">Patch Machine back to API server</text><polygon fill="#FEFECE" points="630 521.797 642 533.797 630 545.797 618 533.797 630 521.797" filter="url(#faaxcmrssfyxv)" style="stroke:#a80036;stroke-width:1.5"/><rect style="stroke:#a80036;stroke-width:1.5" width="142" height="34.133" x="911" y="270.266" fill="pink" filter="url(#faaxcmrssfyxv)" rx="12.5" ry="12.5"/><text x="921" y="291.867" fill="#000" font-family="sans-serif" font-size="12" lengthAdjust="spacingAndGlyphs" textLength="122">Return RequeueError</text><polygon fill="#FEFECE" points="806 551.797 818 563.797 806 575.797 794 563.797 806 551.797" filter="url(#faaxcmrssfyxv)" style="stroke:#a80036;stroke-width:1.5"/><polygon fill="#FEFECE" points="507.5 581.797 519.5 593.797 507.5 605.797 495.5 593.797 507.5 581.797" filter="url(#faaxcmrssfyxv)" style="stroke:#a80036;stroke-width:1.5"/><polygon fill="#FEFECE" points="507.5 104.133 519.5 116.133 507.5 128.133 495.5 116.133 507.5 104.133" filter="url(#faaxcmrssfyxv)" style="stroke:#a80036;stroke-width:1.5"/><polygon fill="#FEFECE" points="426.5 625.797 588.5 625.797 600.5 637.797 588.5 649.797 426.5 649.797 414.5 637.797 426.5 625.797" filter="url(#faaxcmrssfyxv)" style="stroke:#a80036;stroke-width:1.5"/><text x="426.5" y="641.954" fill="#000" font-family="sans-serif" font-size="11" lengthAdjust="spacingAndGlyphs" textLength="162">Create returned RequeueError</text><text x="600.5" y="635.477" fill="#000" font-family="sans-serif" font-size="11" lengthAdjust="spacingAndGlyphs" textLength="18">yes</text><polygon fill="#FEFECE" points="449.5 691.072 565.5 691.072 577.5 703.072 565.5 715.072 449.5 715.072 437.5 703.072 449.5 691.072" filter="url(#faaxcmrssfyxv)" style="stroke:#a80036;stroke-width:1.5"/><text x="449.5" y="707.23" fill="#000" font-family="sans-serif" font-size="11" lengthAdjust="spacingAndGlyphs" textLength="116">Create returned error</text><text x="419.5" y="700.752" fill="#000" font-family="sans-serif" font-size="11" lengthAdjust="spacingAndGlyphs" textLength="18">yes</text><text x="577.5" y="700.752" fill="#000" font-family="sans-serif" font-size="11" lengthAdjust="spacingAndGlyphs" textLength="14">no</text><rect style="stroke:#a80036;stroke-width:1.5" width="151" height="34.133" x="316.75" y="725.072" fill="pink" filter="url(#faaxcmrssfyxv)" rx="12.5" ry="12.5"/><text x="326.75" y="746.674" fill="#000" font-family="sans-serif" font-size="12" lengthAdjust="spacingAndGlyphs" textLength="131">Error creating machine</text><rect style="stroke:#a80036;stroke-width:1.5" width="270" height="34.133" x="487.75" y="725.072" fill="#ADD8E6" filter="url(#faaxcmrssfyxv)" rx="12.5" ry="12.5"/><text x="497.75" y="746.674" fill="#000" font-family="sans-serif" font-size="12" lengthAdjust="spacingAndGlyphs" textLength="250">Machine has initialized or joined the cluster</text><polygon fill="#FEFECE" points="507.5 765.205 519.5 777.205 507.5 789.205 495.5 777.205 507.5 765.205" filter="url(#faaxcmrssfyxv)" style="stroke:#a80036;stroke-width:1.5"/><ellipse cx="507.5" cy="820.205" fill="#FFF" filter="url(#faaxcmrssfyxv)" rx="11" ry="11" style="stroke:#000;stroke-width:1"/><ellipse cx="507.5" cy="820.205" fill="#000" rx="6" ry="6" style="stroke:#7f7f7f;stroke-width:1"/><line style="stroke:#a80036;stroke-width:1.5" x1="507.5" x2="507.5" y1="30" y2="50"/><polygon fill="#A80036" points="503.5 40 507.5 50 511.5 40 507.5 44" style="stroke:#a80036;stroke-width:1"/><line style="stroke:#a80036;stroke-width:1.5" x1="115" x2="105" y1="248.266" y2="248.266"/><line style="stroke:#a80036;stroke-width:1.5" x1="105" x2="105" y1="248.266" y2="270.266"/><polygon fill="#A80036" points="101 260.266 105 270.266 109 260.266 105 264.266" style="stroke:#a80036;stroke-width:1"/><line style="stroke:#a80036;stroke-width:1.5" x1="303" x2="313" y1="248.266" y2="248.266"/><line style="stroke:#a80036;stroke-width:1.5" x1="313" x2="313" y1="248.266" y2="270.266"/><polygon fill="#A80036" points="309 260.266 313 270.266 317 260.266 313 264.266" style="stroke:#a80036;stroke-width:1"/><line style="stroke:#a80036;stroke-width:1.5" x1="105" x2="105" y1="304.398" y2="322.398"/><line style="stroke:#a80036;stroke-width:1.5" x1="105" x2="197" y1="322.398" y2="322.398"/><polygon fill="#A80036" points="187 318.398 197 322.398 187 326.398 191 322.398" style="stroke:#a80036;stroke-width:1"/><line style="stroke:#a80036;stroke-width:1.5" x1="313" x2="313" y1="304.398" y2="322.398"/><line style="stroke:#a80036;stroke-width:1.5" x1="313" x2="221" y1="322.398" y2="322.398"/><polygon fill="#A80036" points="231 318.398 221 322.398 231 326.398 227 322.398" style="stroke:#a80036;stroke-width:1"/><line style="stroke:#a80036;stroke-width:1.5" x1="758.5" x2="758.5" y1="407.531" y2="427.531"/><polygon fill="#A80036" points="754.5 417.531 758.5 427.531 762.5 417.531 758.5 421.531" style="stroke:#a80036;stroke-width:1"/><line style="stroke:#a80036;stroke-width:1.5" x1="758.5" x2="758.5" y1="461.664" y2="481.664"/><polygon fill="#A80036" points="754.5 471.664 758.5 481.664 762.5 471.664 758.5 475.664" style="stroke:#a80036;stroke-width:1"/><line style="stroke:#a80036;stroke-width:1.5" x1="511.5" x2="501.5" y1="351.398" y2="351.398"/><line style="stroke:#a80036;stroke-width:1.5" x1="501.5" x2="501.5" y1="351.398" y2="373.398"/><polygon fill="#A80036" points="497.5 363.398 501.5 373.398 505.5 363.398 501.5 367.398" style="stroke:#a80036;stroke-width:1"/><line style="stroke:#a80036;stroke-width:1.5" x1="748.5" x2="758.5" y1="351.398" y2="351.398"/><line style="stroke:#a80036;stroke-width:1.5" x1="758.5" x2="758.5" y1="351.398" y2="373.398"/><polygon fill="#A80036" points="754.5 363.398 758.5 373.398 762.5 363.398 758.5 367.398" style="stroke:#a80036;stroke-width:1"/><line style="stroke:#a80036;stroke-width:1.5" x1="501.5" x2="501.5" y1="407.531" y2="533.797"/><line style="stroke:#a80036;stroke-width:1.5" x1="501.5" x2="618" y1="533.797" y2="533.797"/><polygon fill="#A80036" points="608 529.797 618 533.797 608 537.797 612 533.797" style="stroke:#a80036;stroke-width:1"/><line style="stroke:#a80036;stroke-width:1.5" x1="758.5" x2="758.5" y1="515.797" y2="533.797"/><line style="stroke:#a80036;stroke-width:1.5" x1="758.5" x2="642" y1="533.797" y2="533.797"/><polygon fill="#A80036" points="652 529.797 642 533.797 652 537.797 648 533.797" style="stroke:#a80036;stroke-width:1"/><line style="stroke:#a80036;stroke-width:1.5" x1="630" x2="630" y1="304.398" y2="339.398"/><polygon fill="#A80036" points="626 329.398 630 339.398 634 329.398 630 333.398" style="stroke:#a80036;stroke-width:1"/><line style="stroke:#a80036;stroke-width:1.5" x1="712" x2="630" y1="248.266" y2="248.266"/><line style="stroke:#a80036;stroke-width:1.5" x1="630" x2="630" y1="248.266" y2="270.266"/><polygon fill="#A80036" points="626 260.266 630 270.266 634 260.266 630 264.266" style="stroke:#a80036;stroke-width:1"/><line style="stroke:#a80036;stroke-width:1.5" x1="900" x2="982" y1="248.266" y2="248.266"/><line style="stroke:#a80036;stroke-width:1.5" x1="982" x2="982" y1="248.266" y2="270.266"/><polygon fill="#A80036" points="978 260.266 982 270.266 986 260.266 982 264.266" style="stroke:#a80036;stroke-width:1"/><line style="stroke:#a80036;stroke-width:1.5" x1="630" x2="630" y1="545.797" y2="563.797"/><line style="stroke:#a80036;stroke-width:1.5" x1="630" x2="794" y1="563.797" y2="563.797"/><polygon fill="#A80036" points="784 559.797 794 563.797 784 567.797 788 563.797" style="stroke:#a80036;stroke-width:1"/><line style="stroke:#a80036;stroke-width:1.5" x1="982" x2="982" y1="304.398" y2="563.797"/><line style="stroke:#a80036;stroke-width:1.5" x1="982" x2="818" y1="563.797" y2="563.797"/><polygon fill="#A80036" points="828 559.797 818 563.797 828 567.797 824 563.797" style="stroke:#a80036;stroke-width:1"/><line style="stroke:#a80036;stroke-width:1.5" x1="418" x2="209" y1="214.266" y2="214.266"/><line style="stroke:#a80036;stroke-width:1.5" x1="209" x2="209" y1="214.266" y2="236.266"/><polygon fill="#A80036" points="205 226.266 209 236.266 213 226.266 209 230.266" style="stroke:#a80036;stroke-width:1"/><line style="stroke:#a80036;stroke-width:1.5" x1="597" x2="806" y1="214.266" y2="214.266"/><line style="stroke:#a80036;stroke-width:1.5" x1="806" x2="806" y1="214.266" y2="236.266"/><polygon fill="#A80036" points="802 226.266 806 236.266 810 226.266 806 230.266" style="stroke:#a80036;stroke-width:1"/><line style="stroke:#a80036;stroke-width:1.5" x1="209" x2="209" y1="334.398" y2="593.797"/><line style="stroke:#a80036;stroke-width:1.5" x1="209" x2="495.5" y1="593.797" y2="593.797"/><polygon fill="#A80036" points="485.5 589.797 495.5 593.797 485.5 597.797 489.5 593.797" style="stroke:#a80036;stroke-width:1"/><line style="stroke:#a80036;stroke-width:1.5" x1="806" x2="806" y1="575.797" y2="593.797"/><line style="stroke:#a80036;stroke-width:1.5" x1="806" x2="519.5" y1="593.797" y2="593.797"/><polygon fill="#A80036" points="529.5 589.797 519.5 593.797 529.5 597.797 525.5 593.797" style="stroke:#a80036;stroke-width:1"/><line style="stroke:#a80036;stroke-width:1.5" x1="507.5" x2="507.5" y1="182.266" y2="202.266"/><polygon fill="#A80036" points="503.5 192.266 507.5 202.266 511.5 192.266 507.5 196.266" style="stroke:#a80036;stroke-width:1"/><line style="stroke:#a80036;stroke-width:1.5" x1="507.5" x2="507.5" y1="128.133" y2="148.133"/><polygon fill="#A80036" points="503.5 138.133 507.5 148.133 511.5 138.133 507.5 142.133" style="stroke:#a80036;stroke-width:1"/><line style="stroke:#a80036;stroke-width:1.5" x1="600.5" x2="1067" y1="637.797" y2="637.797"/><polygon fill="#A80036" points="1063 394.465 1067 384.465 1071 394.465 1067 390.465" style="stroke:#a80036;stroke-width:1.5"/><line style="stroke:#a80036;stroke-width:1.5" x1="1067" x2="1067" y1="116.133" y2="637.797"/><line style="stroke:#a80036;stroke-width:1.5" x1="1067" x2="519.5" y1="116.133" y2="116.133"/><polygon fill="#A80036" points="529.5 112.133 519.5 116.133 529.5 120.133 525.5 116.133" style="stroke:#a80036;stroke-width:1"/><line style="stroke:#a80036;stroke-width:1.5" x1="507.5" x2="507.5" y1="605.797" y2="625.797"/><polygon fill="#A80036" points="503.5 615.797 507.5 625.797 511.5 615.797 507.5 619.797" style="stroke:#a80036;stroke-width:1"/><line style="stroke:#a80036;stroke-width:1.5" x1="507.5" x2="507.5" y1="84.133" y2="104.133"/><polygon fill="#A80036" points="503.5 94.133 507.5 104.133 511.5 94.133 507.5 98.133" style="stroke:#a80036;stroke-width:1"/><line style="stroke:#a80036;stroke-width:1.5" x1="437.5" x2="392.25" y1="703.072" y2="703.072"/><line style="stroke:#a80036;stroke-width:1.5" x1="392.25" x2="392.25" y1="703.072" y2="725.072"/><polygon fill="#A80036" points="388.25 715.072 392.25 725.072 396.25 715.072 392.25 719.072" style="stroke:#a80036;stroke-width:1"/><line style="stroke:#a80036;stroke-width:1.5" x1="577.5" x2="622.75" y1="703.072" y2="703.072"/><line style="stroke:#a80036;stroke-width:1.5" x1="622.75" x2="622.75" y1="703.072" y2="725.072"/><polygon fill="#A80036" points="618.75 715.072 622.75 725.072 626.75 715.072 622.75 719.072" style="stroke:#a80036;stroke-width:1"/><line style="stroke:#a80036;stroke-width:1.5" x1="392.25" x2="392.25" y1="759.205" y2="777.205"/><line style="stroke:#a80036;stroke-width:1.5" x1="392.25" x2="495.5" y1="777.205" y2="777.205"/><polygon fill="#A80036" points="485.5 773.205 495.5 777.205 485.5 781.205 489.5 777.205" style="stroke:#a80036;stroke-width:1"/><line style="stroke:#a80036;stroke-width:1.5" x1="622.75" x2="622.75" y1="759.205" y2="777.205"/><line style="stroke:#a80036;stroke-width:1.5" x1="622.75" x2="519.5" y1="777.205" y2="777.205"/><polygon fill="#A80036" points="529.5 773.205 519.5 777.205 529.5 781.205 525.5 777.205" style="stroke:#a80036;stroke-width:1"/><line style="stroke:#a80036;stroke-width:1.5" x1="507.5" x2="507.5" y1="649.797" y2="691.072"/><polygon fill="#A80036" points="503.5 681.072 507.5 691.072 511.5 681.072 507.5 685.072" style="stroke:#a80036;stroke-width:1"/><text x="511.5" y="671.252" fill="#000" font-family="sans-serif" font-size="11" lengthAdjust="spacingAndGlyphs" textLength="14">no</text><line style="stroke:#a80036;stroke-width:1.5" x1="507.5" x2="507.5" y1="789.205" y2="809.205"/><polygon fill="#A80036" points="503.5 799.205 507.5 809.205 511.5 799.205 507.5 803.205" style="stroke:#a80036;stroke-width:1"/></g></svg>