<svg xmlns="http://www.w3.org/2000/svg" xmlns:xlink="http://www.w3.org/1999/xlink" width="1799" height="1172" contentScriptType="application/ecmascript" contentStyleType="text/css" style="width:1799px;height:1172px" preserveAspectRatio="none" version="1.1" viewBox="0 0 1799 1172" zoomAndPan="magnify"><defs><filter id="frjp6bnfjtl" width="300%" height="300%" x="-1" y="-1"><feGaussianBlur result="blurOut" stdDeviation="2"/><feColorMatrix in="blurOut" result="blurOut2" type="matrix" values="0 0 0 0 0 0 0 0 0 0 0 0 0 0 0 0 0 0 .4 0"/><feOffset dx="4" dy="4" in="blurOut2" result="blurOut3"/><feBlend in="SourceGraphic" in2="blurOut3" mode="normal"/></filter></defs><g><ellipse cx="544.703" cy="20" fill="#000" filter="url(#frjp6bnfjtl)" rx="10" ry="10" style="stroke:none;stroke-width:1"/><rect style="stroke:#a80036;stroke-width:1.5" width="125" height="34.133" x="482.203" y="50" fill="#FEFECE" filter="url(#frjp6bnfjtl)" rx="12.5" ry="12.5"/><text x="492.203" y="71.602" fill="#000" font-family="sans-serif" font-size="12" lengthAdjust="spacingAndGlyphs" textLength="105">Machine controller</text><rect style="stroke:#a80036;stroke-width:1.5" width="74" height="34.133" x="507.703" y="148.133" fill="#FEFECE" filter="url(#frjp6bnfjtl)" rx="12.5" ry="12.5"/><text x="517.703" y="169.734" fill="#000" font-family="sans-serif" font-size="12" lengthAdjust="spacingAndGlyphs" textLength="54">Reconcile</text><polygon fill="#FEFECE" points="458.703 202.266 630.703 202.266 642.703 214.266 630.703 226.266 458.703 226.266 446.703 214.266 458.703 202.266" filter="url(#frjp6bnfjtl)" style="stroke:#a80036;stroke-width:1.5"/><text x="458.703" y="218.423" fill="#000" font-family="sans-serif" font-size="11" lengthAdjust="spacingAndGlyphs" textLength="172">Machine has DeletionTimestamp</text><text x="428.703" y="211.945" fill="#000" font-family="sans-serif" font-size="11" lengthAdjust="spacingAndGlyphs" textLength="18">yes</text><text x="642.703" y="211.945" fill="#000" font-family="sans-serif" font-size="11" lengthAdjust="spacingAndGlyphs" textLength="14">no</text><polygon fill="#FEFECE" points="90 236.266 228 236.266 240 248.266 228 260.266 90 260.266 78 248.266 90 236.266" filter="url(#frjp6bnfjtl)" style="stroke:#a80036;stroke-width:1.5"/><text x="90" y="252.423" fill="#000" font-family="sans-serif" font-size="11" lengthAdjust="spacingAndGlyphs" textLength="138">Machine has in-flight task</text><text x="60" y="245.945" fill="#000" font-family="sans-serif" font-size="11" lengthAdjust="spacingAndGlyphs" textLength="18">yes</text><text x="240" y="245.945" fill="#000" font-family="sans-serif" font-size="11" lengthAdjust="spacingAndGlyphs" textLength="14">no</text><rect style="stroke:#a80036;stroke-width:1.5" width="71" height="34.133" x="10" y="270.266" fill="#90EE90" filter="url(#frjp6bnfjtl)" rx="12.5" ry="12.5"/><text x="20" y="291.867" fill="#000" font-family="sans-serif" font-size="12" lengthAdjust="spacingAndGlyphs" textLength="51">Requeue</text><polygon fill="#FEFECE" points="205.5 270.266 339.5 270.266 351.5 282.266 339.5 294.266 205.5 294.266 193.5 282.266 205.5 270.266" filter="url(#frjp6bnfjtl)" style="stroke:#a80036;stroke-width:1.5"/><text x="205.5" y="286.423" fill="#000" font-family="sans-serif" font-size="11" lengthAdjust="spacingAndGlyphs" textLength="134">Machine has a ProviderID</text><text x="175.5" y="279.945" fill="#000" font-family="sans-serif" font-size="11" lengthAdjust="spacingAndGlyphs" textLength="18">yes</text><text x="351.5" y="279.945" fill="#000" font-family="sans-serif" font-size="11" lengthAdjust="spacingAndGlyphs" textLength="14">no</text><rect style="stroke:#a80036;stroke-width:1.5" width="145" height="34.133" x="111" y="304.266" fill="#EDF7DE" filter="url(#frjp6bnfjtl)" rx="12.5" ry="12.5"/><text x="121" y="325.867" fill="#000" font-family="sans-serif" font-size="12" lengthAdjust="spacingAndGlyphs" textLength="125">Find VM by BIOS UUID</text><rect style="stroke:#a80036;stroke-width:1.5" width="167" height="34.133" x="278" y="304.266" fill="#EDF7DE" filter="url(#frjp6bnfjtl)" rx="12.5" ry="12.5"/><text x="288" y="325.867" fill="#000" font-family="sans-serif" font-size="12" lengthAdjust="spacingAndGlyphs" textLength="147">Find VM by instance UUID</text><polygon fill="#FEFECE" points="272.5 344.398 284.5 356.398 272.5 368.398 260.5 356.398 272.5 344.398" filter="url(#frjp6bnfjtl)" style="stroke:#a80036;stroke-width:1.5"/><rect style="stroke:#a80036;stroke-width:1.5" width="79" height="34.133" x="233" y="436.876" fill="#EDF7DE" filter="url(#frjp6bnfjtl)" rx="12.5" ry="12.5"/><text x="243" y="458.478" fill="#000" font-family="sans-serif" font-size="12" lengthAdjust="spacingAndGlyphs" textLength="59">Delete VM</text><rect style="stroke:#a80036;stroke-width:1.5" width="214" height="34.133" x="165.5" y="506.009" fill="#EDF7DE" filter="url(#frjp6bnfjtl)" rx="12.5" ry="12.5"/><text x="175.5" y="527.61" fill="#000" font-family="sans-serif" font-size="12" lengthAdjust="spacingAndGlyphs" textLength="194">Assign delete TaskRef to Machine</text><rect style="stroke:#a80036;stroke-width:1.5" width="71" height="34.133" x="237" y="575.142" fill="#90EE90" filter="url(#frjp6bnfjtl)" rx="12.5" ry="12.5"/><text x="247" y="596.743" fill="#000" font-family="sans-serif" font-size="12" lengthAdjust="spacingAndGlyphs" textLength="51">Requeue</text><polygon fill="#FEFECE" points="247 388.398 298 388.398 310 400.398 298 412.398 247 412.398 235 400.398 247 388.398" filter="url(#frjp6bnfjtl)" style="stroke:#a80036;stroke-width:1.5"/><text x="276.5" y="423.033" fill="#000" font-family="sans-serif" font-size="11" lengthAdjust="spacingAndGlyphs" textLength="18">yes</text><text x="247" y="404.556" fill="#000" font-family="sans-serif" font-size="11" lengthAdjust="spacingAndGlyphs" textLength="51">VM exists</text><polygon fill="#FEFECE" points="272.5 633.752 284.5 645.752 272.5 657.752 260.5 645.752 272.5 633.752" filter="url(#frjp6bnfjtl)" style="stroke:#a80036;stroke-width:1.5"/><polygon fill="#FEFECE" points="159 663.752 171 675.752 159 687.752 147 675.752 159 663.752" filter="url(#frjp6bnfjtl)" style="stroke:#a80036;stroke-width:1.5"/><polygon fill="#FEFECE" points="861.406 236.266 999.406 236.266 1011.406 248.266 999.406 260.266 861.406 260.266 849.406 248.266 861.406 236.266" filter="url(#frjp6bnfjtl)" style="stroke:#a80036;stroke-width:1.5"/><text x="861.406" y="252.423" fill="#000" font-family="sans-serif" font-size="11" lengthAdjust="spacingAndGlyphs" textLength="138">Machine has in-flight task</text><text x="831.406" y="245.945" fill="#000" font-family="sans-serif" font-size="11" lengthAdjust="spacingAndGlyphs" textLength="18">yes</text><text x="1011.406" y="245.945" fill="#000" font-family="sans-serif" font-size="11" lengthAdjust="spacingAndGlyphs" textLength="14">no</text><rect style="stroke:#a80036;stroke-width:1.5" width="71" height="34.133" x="495" y="270.266" fill="#90EE90" filter="url(#frjp6bnfjtl)" rx="12.5" ry="12.5"/><text x="505" y="291.867" fill="#000" font-family="sans-serif" font-size="12" lengthAdjust="spacingAndGlyphs" textLength="51">Requeue</text><polygon fill="#FEFECE" points="1263.313 270.266 1397.313 270.266 1409.313 282.266 1397.313 294.266 1263.313 294.266 1251.313 282.266 1263.313 270.266" filter="url(#frjp6bnfjtl)" style="stroke:#a80036;stroke-width:1.5"/><text x="1263.313" y="286.423" fill="#000" font-family="sans-serif" font-size="11" lengthAdjust="spacingAndGlyphs" textLength="134">Machine has a ProviderID</text><text x="1233.313" y="279.945" fill="#000" font-family="sans-serif" font-size="11" lengthAdjust="spacingAndGlyphs" textLength="18">yes</text><text x="1409.313" y="279.945" fill="#000" font-family="sans-serif" font-size="11" lengthAdjust="spacingAndGlyphs" textLength="14">no</text><rect style="stroke:#a80036;stroke-width:1.5" width="145" height="34.133" x="1168.813" y="304.266" fill="#EDF7DE" filter="url(#frjp6bnfjtl)" rx="12.5" ry="12.5"/><text x="1178.813" y="325.867" fill="#000" font-family="sans-serif" font-size="12" lengthAdjust="spacingAndGlyphs" textLength="125">Find VM by BIOS UUID</text><rect style="stroke:#a80036;stroke-width:1.5" width="167" height="34.133" x="1335.813" y="304.266" fill="#EDF7DE" filter="url(#frjp6bnfjtl)" rx="12.5" ry="12.5"/><text x="1345.813" y="325.867" fill="#000" font-family="sans-serif" font-size="12" lengthAdjust="spacingAndGlyphs" textLength="147">Find VM by instance UUID</text><polygon fill="#FEFECE" points="1330.313 344.398 1342.313 356.398 1330.313 368.398 1318.313 356.398 1330.313 344.398" filter="url(#frjp6bnfjtl)" style="stroke:#a80036;stroke-width:1.5"/><polygon fill="#FEFECE" points="1304.813 388.398 1355.813 388.398 1367.813 400.398 1355.813 412.398 1304.813 412.398 1292.813 400.398 1304.813 388.398" filter="url(#frjp6bnfjtl)" style="stroke:#a80036;stroke-width:1.5"/><text x="1304.813" y="404.556" fill="#000" font-family="sans-serif" font-size="11" lengthAdjust="spacingAndGlyphs" textLength="51">VM exists</text><text x="1274.813" y="398.078" fill="#000" font-family="sans-serif" font-size="11" lengthAdjust="spacingAndGlyphs" textLength="18">yes</text><text x="1367.813" y="398.078" fill="#000" font-family="sans-serif" font-size="11" lengthAdjust="spacingAndGlyphs" textLength="14">no</text><polygon fill="#FEFECE" points="854.625 422.398 1079.625 422.398 1091.625 434.398 1079.625 446.398 854.625 446.398 842.625 434.398 854.625 422.398" filter="url(#frjp6bnfjtl)" style="stroke:#a80036;stroke-width:1.5"/><text x="854.625" y="438.556" fill="#000" font-family="sans-serif" font-size="11" lengthAdjust="spacingAndGlyphs" textLength="225">VM metadata matches calculated metadata</text><text x="828.625" y="432.078" fill="#000" font-family="sans-serif" font-size="11" lengthAdjust="spacingAndGlyphs" textLength="14">no</text><text x="1091.625" y="432.078" fill="#000" font-family="sans-serif" font-size="11" lengthAdjust="spacingAndGlyphs" textLength="18">yes</text><rect style="stroke:#a80036;stroke-width:1.5" width="258" height="34.133" x="606" y="456.398" fill="#EDF7DE" filter="url(#frjp6bnfjtl)" rx="12.5" ry="12.5"/><text x="616" y="478" fill="#000" font-family="sans-serif" font-size="12" lengthAdjust="spacingAndGlyphs" textLength="238">Reconfigure VM with calculated metadata</text><rect style="stroke:#a80036;stroke-width:1.5" width="243" height="34.133" x="613.5" y="525.531" fill="#EDF7DE" filter="url(#frjp6bnfjtl)" rx="12.5" ry="12.5"/><text x="623.5" y="547.133" fill="#000" font-family="sans-serif" font-size="12" lengthAdjust="spacingAndGlyphs" textLength="223">Assign reconfigure TaskRef to Machine</text><rect style="stroke:#a80036;stroke-width:1.5" width="71" height="34.133" x="699.5" y="594.664" fill="#90EE90" filter="url(#frjp6bnfjtl)" rx="12.5" ry="12.5"/><text x="709.5" y="616.266" fill="#000" font-family="sans-serif" font-size="12" lengthAdjust="spacingAndGlyphs" textLength="51">Requeue</text><rect style="stroke:#a80036;stroke-width:1.5" width="325" height="34.133" x="1036.75" y="456.398" fill="#EDF7DE" filter="url(#frjp6bnfjtl)" rx="12.5" ry="12.5"/><text x="1046.75" y="478" fill="#000" font-family="sans-serif" font-size="12" lengthAdjust="spacingAndGlyphs" textLength="305">Update Machine status with MAC addresses from VM</text><polygon fill="#FEFECE" points="1158.25 525.531 1240.25 525.531 1252.25 537.531 1240.25 549.531 1158.25 549.531 1146.25 537.531 1158.25 525.531" filter="url(#frjp6bnfjtl)" style="stroke:#a80036;stroke-width:1.5"/><text x="1158.25" y="541.688" fill="#000" font-family="sans-serif" font-size="11" lengthAdjust="spacingAndGlyphs" textLength="82">VM powered on</text><text x="1132.25" y="535.211" fill="#000" font-family="sans-serif" font-size="11" lengthAdjust="spacingAndGlyphs" textLength="14">no</text><text x="1252.25" y="535.211" fill="#000" font-family="sans-serif" font-size="11" lengthAdjust="spacingAndGlyphs" textLength="18">yes</text><rect style="stroke:#a80036;stroke-width:1.5" width="95" height="34.133" x="953.5" y="559.531" fill="#EDF7DE" filter="url(#frjp6bnfjtl)" rx="12.5" ry="12.5"/><text x="963.5" y="581.133" fill="#000" font-family="sans-serif" font-size="12" lengthAdjust="spacingAndGlyphs" textLength="75">Power on VM</text><rect style="stroke:#a80036;stroke-width:1.5" width="214" height="34.133" x="894" y="628.664" fill="#EDF7DE" filter="url(#frjp6bnfjtl)" rx="12.5" ry="12.5"/><text x="904" y="650.266" fill="#000" font-family="sans-serif" font-size="12" lengthAdjust="spacingAndGlyphs" textLength="194">Assign power TaskRef to Machine</text><rect style="stroke:#a80036;stroke-width:1.5" width="71" height="34.133" x="965.5" y="697.797" fill="#90EE90" filter="url(#frjp6bnfjtl)" rx="12.5" ry="12.5"/><text x="975.5" y="719.398" fill="#000" font-family="sans-serif" font-size="12" lengthAdjust="spacingAndGlyphs" textLength="51">Requeue</text><polygon fill="#FEFECE" points="1343.5 559.531 1451.5 559.531 1463.5 571.531 1451.5 583.531 1343.5 583.531 1331.5 571.531 1343.5 559.531" filter="url(#frjp6bnfjtl)" style="stroke:#a80036;stroke-width:1.5"/><text x="1343.5" y="575.688" fill="#000" font-family="sans-serif" font-size="11" lengthAdjust="spacingAndGlyphs" textLength="108">VM has IP addresses</text><text x="1313.5" y="569.211" fill="#000" font-family="sans-serif" font-size="11" lengthAdjust="spacingAndGlyphs" textLength="18">yes</text><text x="1463.5" y="569.211" fill="#000" font-family="sans-serif" font-size="11" lengthAdjust="spacingAndGlyphs" textLength="14">no</text><rect style="stroke:#a80036;stroke-width:1.5" width="309" height="34.133" x="1138" y="593.531" fill="#EDF7DE" filter="url(#frjp6bnfjtl)" rx="12.5" ry="12.5"/><text x="1148" y="615.133" fill="#000" font-family="sans-serif" font-size="12" lengthAdjust="spacingAndGlyphs" textLength="289">Update Machine status with IP addresses from VM</text><rect style="stroke:#a80036;stroke-width:1.5" width="71" height="34.133" x="1467" y="593.531" fill="#90EE90" filter="url(#frjp6bnfjtl)" rx="12.5" ry="12.5"/><text x="1477" y="615.133" fill="#000" font-family="sans-serif" font-size="12" lengthAdjust="spacingAndGlyphs" textLength="51">Requeue</text><polygon fill="#FEFECE" points="1397.5 633.664 1409.5 645.664 1397.5 657.664 1385.5 645.664 1397.5 633.664" filter="url(#frjp6bnfjtl)" style="stroke:#a80036;stroke-width:1.5"/><polygon fill="#FEFECE" points="1199.25 737.93 1211.25 749.93 1199.25 761.93 1187.25 749.93 1199.25 737.93" filter="url(#frjp6bnfjtl)" style="stroke:#a80036;stroke-width:1.5"/><polygon fill="#FEFECE" points="967.125 767.93 979.125 779.93 967.125 791.93 955.125 779.93 967.125 767.93" filter="url(#frjp6bnfjtl)" style="stroke:#a80036;stroke-width:1.5"/><rect style="stroke:#a80036;stroke-width:1.5" width="211" height="34.133" x="1548" y="422.398" fill="#EDF7DE" filter="url(#frjp6bnfjtl)" rx="12.5" ry="12.5"/><text x="1558" y="444" fill="#000" font-family="sans-serif" font-size="12" lengthAdjust="spacingAndGlyphs" textLength="191">Clone template to create new VM</text><rect style="stroke:#a80036;stroke-width:1.5" width="208" height="34.133" x="1549.5" y="491.531" fill="#EDF7DE" filter="url(#frjp6bnfjtl)" rx="12.5" ry="12.5"/><text x="1559.5" y="513.133" fill="#000" font-family="sans-serif" font-size="12" lengthAdjust="spacingAndGlyphs" textLength="188">Assign clone TaskRef to Machine</text><rect style="stroke:#a80036;stroke-width:1.5" width="71" height="34.133" x="1618" y="560.664" fill="#90EE90" filter="url(#frjp6bnfjtl)" rx="12.5" ry="12.5"/><text x="1628" y="582.266" fill="#000" font-family="sans-serif" font-size="12" lengthAdjust="spacingAndGlyphs" textLength="51">Requeue</text><polygon fill="#FEFECE" points="1330.313 797.93 1342.313 809.93 1330.313 821.93 1318.313 809.93 1330.313 797.93" filter="url(#frjp6bnfjtl)" style="stroke:#a80036;stroke-width:1.5"/><polygon fill="#FEFECE" points="930.406 827.93 942.406 839.93 930.406 851.93 918.406 839.93 930.406 827.93" filter="url(#frjp6bnfjtl)" style="stroke:#a80036;stroke-width:1.5"/><polygon fill="#FEFECE" points="544.703 857.93 556.703 869.93 544.703 881.93 532.703 869.93 544.703 857.93" filter="url(#frjp6bnfjtl)" style="stroke:#a80036;stroke-width:1.5"/><rect style="stroke:#a80036;stroke-width:1.5" width="259" height="34.133" x="415.203" y="901.93" fill="#EDF7DE" filter="url(#frjp6bnfjtl)" rx="12.5" ry="12.5"/><text x="425.203" y="923.531" fill="#000" font-family="sans-serif" font-size="12" lengthAdjust="spacingAndGlyphs" textLength="239">Machine state patched back to API server</text><polygon fill="#FEFECE" points="544.703 104.133 556.703 116.133 544.703 128.133 532.703 116.133 544.703 104.133" filter="url(#frjp6bnfjtl)" style="stroke:#a80036;stroke-width:1.5"/><polygon fill="#FEFECE" points="486.203 956.063 603.203 956.063 615.203 968.063 603.203 980.063 486.203 980.063 474.203 968.063 486.203 956.063" filter="url(#frjp6bnfjtl)" style="stroke:#a80036;stroke-width:1.5"/><text x="486.203" y="972.22" fill="#000" font-family="sans-serif" font-size="11" lengthAdjust="spacingAndGlyphs" textLength="117">Reconcile is requeued</text><text x="615.203" y="965.742" fill="#000" font-family="sans-serif" font-size="11" lengthAdjust="spacingAndGlyphs" textLength="18">yes</text><polygon fill="#FEFECE" points="504.703 1021.338 584.703 1021.338 596.703 1033.338 584.703 1045.338 504.703 1045.338 492.703 1033.338 504.703 1021.338" filter="url(#frjp6bnfjtl)" style="stroke:#a80036;stroke-width:1.5"/><text x="504.703" y="1037.495" fill="#000" font-family="sans-serif" font-size="11" lengthAdjust="spacingAndGlyphs" textLength="80">Error occurred</text><text x="474.703" y="1031.018" fill="#000" font-family="sans-serif" font-size="11" lengthAdjust="spacingAndGlyphs" textLength="18">yes</text><text x="596.703" y="1031.018" fill="#000" font-family="sans-serif" font-size="11" lengthAdjust="spacingAndGlyphs" textLength="14">no</text><rect style="stroke:#a80036;stroke-width:1.5" width="110" height="34.133" x="421.703" y="1055.338" fill="pink" filter="url(#frjp6bnfjtl)" rx="12.5" ry="12.5"/><text x="431.703" y="1076.939" fill="#000" font-family="sans-serif" font-size="12" lengthAdjust="spacingAndGlyphs" textLength="90">Reconcile failed</text><rect style="stroke:#a80036;stroke-width:1.5" width="122" height="34.133" x="551.703" y="1055.338" fill="#ADD8E6" filter="url(#frjp6bnfjtl)" rx="12.5" ry="12.5"/><text x="561.703" y="1076.939" fill="#000" font-family="sans-serif" font-size="12" lengthAdjust="spacingAndGlyphs" textLength="102">Reconcile success</text><polygon fill="#FEFECE" points="544.703 1095.471 556.703 1107.471 544.703 1119.471 532.703 1107.471 544.703 1095.471" filter="url(#frjp6bnfjtl)" style="stroke:#a80036;stroke-width:1.5"/><ellipse cx="544.703" cy="1150.471" fill="#FFF" filter="url(#frjp6bnfjtl)" rx="11" ry="11" style="stroke:#000;stroke-width:1"/><ellipse cx="544.703" cy="1150.471" fill="#000" rx="6" ry="6" style="stroke:#7f7f7f;stroke-width:1"/><line style="stroke:#a80036;stroke-width:1.5" x1="544.703" x2="544.703" y1="30" y2="50"/><polygon fill="#A80036" points="540.703 40 544.703 50 548.703 40 544.703 44" style="stroke:#a80036;stroke-width:1"/><line style="stroke:#a80036;stroke-width:1.5" x1="193.5" x2="183.5" y1="282.266" y2="282.266"/><line style="stroke:#a80036;stroke-width:1.5" x1="183.5" x2="183.5" y1="282.266" y2="304.266"/><polygon fill="#A80036" points="179.5 294.266 183.5 304.266 187.5 294.266 183.5 298.266" style="stroke:#a80036;stroke-width:1"/><line style="stroke:#a80036;stroke-width:1.5" x1="351.5" x2="361.5" y1="282.266" y2="282.266"/><line style="stroke:#a80036;stroke-width:1.5" x1="361.5" x2="361.5" y1="282.266" y2="304.266"/><polygon fill="#A80036" points="357.5 294.266 361.5 304.266 365.5 294.266 361.5 298.266" style="stroke:#a80036;stroke-width:1"/><line style="stroke:#a80036;stroke-width:1.5" x1="183.5" x2="183.5" y1="338.398" y2="356.398"/><line style="stroke:#a80036;stroke-width:1.5" x1="183.5" x2="260.5" y1="356.398" y2="356.398"/><polygon fill="#A80036" points="250.5 352.398 260.5 356.398 250.5 360.398 254.5 356.398" style="stroke:#a80036;stroke-width:1"/><line style="stroke:#a80036;stroke-width:1.5" x1="361.5" x2="361.5" y1="338.398" y2="356.398"/><line style="stroke:#a80036;stroke-width:1.5" x1="361.5" x2="284.5" y1="356.398" y2="356.398"/><polygon fill="#A80036" points="294.5 352.398 284.5 356.398 294.5 360.398 290.5 356.398" style="stroke:#a80036;stroke-width:1"/><line style="stroke:#a80036;stroke-width:1.5" x1="272.5" x2="272.5" y1="471.009" y2="506.009"/><polygon fill="#A80036" points="268.5 496.009 272.5 506.009 276.5 496.009 272.5 500.009" style="stroke:#a80036;stroke-width:1"/><line style="stroke:#a80036;stroke-width:1.5" x1="272.5" x2="272.5" y1="540.142" y2="575.142"/><polygon fill="#A80036" points="268.5 565.142 272.5 575.142 276.5 565.142 272.5 569.142" style="stroke:#a80036;stroke-width:1"/><line style="stroke:#a80036;stroke-width:1.5" x1="272.5" x2="272.5" y1="412.398" y2="436.876"/><polygon fill="#A80036" points="268.5 426.876 272.5 436.876 276.5 426.876 272.5 430.876" style="stroke:#a80036;stroke-width:1"/><line style="stroke:#a80036;stroke-width:1.5" x1="310" x2="389.5" y1="400.398" y2="400.398"/><polygon fill="#A80036" points="385.5 513.075 389.5 523.075 393.5 513.075 389.5 517.075" style="stroke:#a80036;stroke-width:1.5"/><line style="stroke:#a80036;stroke-width:1.5" x1="389.5" x2="389.5" y1="400.398" y2="645.752"/><line style="stroke:#a80036;stroke-width:1.5" x1="389.5" x2="284.5" y1="645.752" y2="645.752"/><polygon fill="#A80036" points="294.5 641.752 284.5 645.752 294.5 649.752 290.5 645.752" style="stroke:#a80036;stroke-width:1"/><line style="stroke:#a80036;stroke-width:1.5" x1="272.5" x2="272.5" y1="609.274" y2="633.752"/><polygon fill="#A80036" points="268.5 623.752 272.5 633.752 276.5 623.752 272.5 627.752" style="stroke:#a80036;stroke-width:1"/><line style="stroke:#a80036;stroke-width:1.5" x1="272.5" x2="272.5" y1="368.398" y2="388.398"/><polygon fill="#A80036" points="268.5 378.398 272.5 388.398 276.5 378.398 272.5 382.398" style="stroke:#a80036;stroke-width:1"/><line style="stroke:#a80036;stroke-width:1.5" x1="78" x2="45.5" y1="248.266" y2="248.266"/><line style="stroke:#a80036;stroke-width:1.5" x1="45.5" x2="45.5" y1="248.266" y2="270.266"/><polygon fill="#A80036" points="41.5 260.266 45.5 270.266 49.5 260.266 45.5 264.266" style="stroke:#a80036;stroke-width:1"/><line style="stroke:#a80036;stroke-width:1.5" x1="240" x2="272.5" y1="248.266" y2="248.266"/><line style="stroke:#a80036;stroke-width:1.5" x1="272.5" x2="272.5" y1="248.266" y2="270.266"/><polygon fill="#A80036" points="268.5 260.266 272.5 270.266 276.5 260.266 272.5 264.266" style="stroke:#a80036;stroke-width:1"/><line style="stroke:#a80036;stroke-width:1.5" x1="45.5" x2="45.5" y1="304.398" y2="675.752"/><line style="stroke:#a80036;stroke-width:1.5" x1="45.5" x2="147" y1="675.752" y2="675.752"/><polygon fill="#A80036" points="137 671.752 147 675.752 137 679.752 141 675.752" style="stroke:#a80036;stroke-width:1"/><line style="stroke:#a80036;stroke-width:1.5" x1="272.5" x2="272.5" y1="657.752" y2="675.752"/><line style="stroke:#a80036;stroke-width:1.5" x1="272.5" x2="171" y1="675.752" y2="675.752"/><polygon fill="#A80036" points="181 671.752 171 675.752 181 679.752 177 675.752" style="stroke:#a80036;stroke-width:1"/><line style="stroke:#a80036;stroke-width:1.5" x1="1251.313" x2="1241.313" y1="282.266" y2="282.266"/><line style="stroke:#a80036;stroke-width:1.5" x1="1241.313" x2="1241.313" y1="282.266" y2="304.266"/><polygon fill="#A80036" points="1237.313 294.266 1241.313 304.266 1245.313 294.266 1241.313 298.266" style="stroke:#a80036;stroke-width:1"/><line style="stroke:#a80036;stroke-width:1.5" x1="1409.313" x2="1419.313" y1="282.266" y2="282.266"/><line style="stroke:#a80036;stroke-width:1.5" x1="1419.313" x2="1419.313" y1="282.266" y2="304.266"/><polygon fill="#A80036" points="1415.313 294.266 1419.313 304.266 1423.313 294.266 1419.313 298.266" style="stroke:#a80036;stroke-width:1"/><line style="stroke:#a80036;stroke-width:1.5" x1="1241.313" x2="1241.313" y1="338.398" y2="356.398"/><line style="stroke:#a80036;stroke-width:1.5" x1="1241.313" x2="1318.313" y1="356.398" y2="356.398"/><polygon fill="#A80036" points="1308.313 352.398 1318.313 356.398 1308.313 360.398 1312.313 356.398" style="stroke:#a80036;stroke-width:1"/><line style="stroke:#a80036;stroke-width:1.5" x1="1419.313" x2="1419.313" y1="338.398" y2="356.398"/><line style="stroke:#a80036;stroke-width:1.5" x1="1419.313" x2="1342.313" y1="356.398" y2="356.398"/><polygon fill="#A80036" points="1352.313 352.398 1342.313 356.398 1352.313 360.398 1348.313 356.398" style="stroke:#a80036;stroke-width:1"/><line style="stroke:#a80036;stroke-width:1.5" x1="735" x2="735" y1="490.531" y2="525.531"/><polygon fill="#A80036" points="731 515.531 735 525.531 739 515.531 735 519.531" style="stroke:#a80036;stroke-width:1"/><line style="stroke:#a80036;stroke-width:1.5" x1="735" x2="735" y1="559.664" y2="594.664"/><polygon fill="#A80036" points="731 584.664 735 594.664 739 584.664 735 588.664" style="stroke:#a80036;stroke-width:1"/><line style="stroke:#a80036;stroke-width:1.5" x1="1001" x2="1001" y1="593.664" y2="628.664"/><polygon fill="#A80036" points="997 618.664 1001 628.664 1005 618.664 1001 622.664" style="stroke:#a80036;stroke-width:1"/><line style="stroke:#a80036;stroke-width:1.5" x1="1001" x2="1001" y1="662.797" y2="697.797"/><polygon fill="#A80036" points="997 687.797 1001 697.797 1005 687.797 1001 691.797" style="stroke:#a80036;stroke-width:1"/><line style="stroke:#a80036;stroke-width:1.5" x1="1331.5" x2="1292.5" y1="571.531" y2="571.531"/><line style="stroke:#a80036;stroke-width:1.5" x1="1292.5" x2="1292.5" y1="571.531" y2="593.531"/><polygon fill="#A80036" points="1288.5 583.531 1292.5 593.531 1296.5 583.531 1292.5 587.531" style="stroke:#a80036;stroke-width:1"/><line style="stroke:#a80036;stroke-width:1.5" x1="1463.5" x2="1502.5" y1="571.531" y2="571.531"/><line style="stroke:#a80036;stroke-width:1.5" x1="1502.5" x2="1502.5" y1="571.531" y2="593.531"/><polygon fill="#A80036" points="1498.5 583.531 1502.5 593.531 1506.5 583.531 1502.5 587.531" style="stroke:#a80036;stroke-width:1"/><line style="stroke:#a80036;stroke-width:1.5" x1="1292.5" x2="1292.5" y1="627.664" y2="645.664"/><line style="stroke:#a80036;stroke-width:1.5" x1="1292.5" x2="1385.5" y1="645.664" y2="645.664"/><polygon fill="#A80036" points="1375.5 641.664 1385.5 645.664 1375.5 649.664 1379.5 645.664" style="stroke:#a80036;stroke-width:1"/><line style="stroke:#a80036;stroke-width:1.5" x1="1502.5" x2="1502.5" y1="627.664" y2="645.664"/><line style="stroke:#a80036;stroke-width:1.5" x1="1502.5" x2="1409.5" y1="645.664" y2="645.664"/><polygon fill="#A80036" points="1419.5 641.664 1409.5 645.664 1419.5 649.664 1415.5 645.664" style="stroke:#a80036;stroke-width:1"/><line style="stroke:#a80036;stroke-width:1.5" x1="1146.25" x2="1001" y1="537.531" y2="537.531"/><line style="stroke:#a80036;stroke-width:1.5" x1="1001" x2="1001" y1="537.531" y2="559.531"/><polygon fill="#A80036" points="997 549.531 1001 559.531 1005 549.531 1001 553.531" style="stroke:#a80036;stroke-width:1"/><line style="stroke:#a80036;stroke-width:1.5" x1="1252.25" x2="1397.5" y1="537.531" y2="537.531"/><line style="stroke:#a80036;stroke-width:1.5" x1="1397.5" x2="1397.5" y1="537.531" y2="559.531"/><polygon fill="#A80036" points="1393.5 549.531 1397.5 559.531 1401.5 549.531 1397.5 553.531" style="stroke:#a80036;stroke-width:1"/><line style="stroke:#a80036;stroke-width:1.5" x1="1001" x2="1001" y1="731.93" y2="749.93"/><line style="stroke:#a80036;stroke-width:1.5" x1="1001" x2="1187.25" y1="749.93" y2="749.93"/><polygon fill="#A80036" points="1177.25 745.93 1187.25 749.93 1177.25 753.93 1181.25 749.93" style="stroke:#a80036;stroke-width:1"/><line style="stroke:#a80036;stroke-width:1.5" x1="1397.5" x2="1397.5" y1="657.664" y2="749.93"/><line style="stroke:#a80036;stroke-width:1.5" x1="1397.5" x2="1211.25" y1="749.93" y2="749.93"/><polygon fill="#A80036" points="1221.25 745.93 1211.25 749.93 1221.25 753.93 1217.25 749.93" style="stroke:#a80036;stroke-width:1"/><line style="stroke:#a80036;stroke-width:1.5" x1="1199.25" x2="1199.25" y1="490.531" y2="525.531"/><polygon fill="#A80036" points="1195.25 515.531 1199.25 525.531 1203.25 515.531 1199.25 519.531" style="stroke:#a80036;stroke-width:1"/><line style="stroke:#a80036;stroke-width:1.5" x1="842.625" x2="735" y1="434.398" y2="434.398"/><line style="stroke:#a80036;stroke-width:1.5" x1="735" x2="735" y1="434.398" y2="456.398"/><polygon fill="#A80036" points="731 446.398 735 456.398 739 446.398 735 450.398" style="stroke:#a80036;stroke-width:1"/><line style="stroke:#a80036;stroke-width:1.5" x1="1091.625" x2="1199.25" y1="434.398" y2="434.398"/><line style="stroke:#a80036;stroke-width:1.5" x1="1199.25" x2="1199.25" y1="434.398" y2="456.398"/><polygon fill="#A80036" points="1195.25 446.398 1199.25 456.398 1203.25 446.398 1199.25 450.398" style="stroke:#a80036;stroke-width:1"/><line style="stroke:#a80036;stroke-width:1.5" x1="735" x2="735" y1="628.797" y2="779.93"/><line style="stroke:#a80036;stroke-width:1.5" x1="735" x2="955.125" y1="779.93" y2="779.93"/><polygon fill="#A80036" points="945.125 775.93 955.125 779.93 945.125 783.93 949.125 779.93" style="stroke:#a80036;stroke-width:1"/><line style="stroke:#a80036;stroke-width:1.5" x1="1199.25" x2="1199.25" y1="761.93" y2="779.93"/><line style="stroke:#a80036;stroke-width:1.5" x1="1199.25" x2="979.125" y1="779.93" y2="779.93"/><polygon fill="#A80036" points="989.125 775.93 979.125 779.93 989.125 783.93 985.125 779.93" style="stroke:#a80036;stroke-width:1"/><line style="stroke:#a80036;stroke-width:1.5" x1="1653.5" x2="1653.5" y1="456.531" y2="491.531"/><polygon fill="#A80036" points="1649.5 481.531 1653.5 491.531 1657.5 481.531 1653.5 485.531" style="stroke:#a80036;stroke-width:1"/><line style="stroke:#a80036;stroke-width:1.5" x1="1653.5" x2="1653.5" y1="525.664" y2="560.664"/><polygon fill="#A80036" points="1649.5 550.664 1653.5 560.664 1657.5 550.664 1653.5 554.664" style="stroke:#a80036;stroke-width:1"/><line style="stroke:#a80036;stroke-width:1.5" x1="1292.813" x2="967.125" y1="400.398" y2="400.398"/><line style="stroke:#a80036;stroke-width:1.5" x1="967.125" x2="967.125" y1="400.398" y2="422.398"/><polygon fill="#A80036" points="963.125 412.398 967.125 422.398 971.125 412.398 967.125 416.398" style="stroke:#a80036;stroke-width:1"/><line style="stroke:#a80036;stroke-width:1.5" x1="1367.813" x2="1653.5" y1="400.398" y2="400.398"/><line style="stroke:#a80036;stroke-width:1.5" x1="1653.5" x2="1653.5" y1="400.398" y2="422.398"/><polygon fill="#A80036" points="1649.5 412.398 1653.5 422.398 1657.5 412.398 1653.5 416.398" style="stroke:#a80036;stroke-width:1"/><line style="stroke:#a80036;stroke-width:1.5" x1="967.125" x2="967.125" y1="791.93" y2="809.93"/><line style="stroke:#a80036;stroke-width:1.5" x1="967.125" x2="1318.313" y1="809.93" y2="809.93"/><polygon fill="#A80036" points="1308.313 805.93 1318.313 809.93 1308.313 813.93 1312.313 809.93" style="stroke:#a80036;stroke-width:1"/><line style="stroke:#a80036;stroke-width:1.5" x1="1653.5" x2="1653.5" y1="594.797" y2="809.93"/><line style="stroke:#a80036;stroke-width:1.5" x1="1653.5" x2="1342.313" y1="809.93" y2="809.93"/><polygon fill="#A80036" points="1352.313 805.93 1342.313 809.93 1352.313 813.93 1348.313 809.93" style="stroke:#a80036;stroke-width:1"/><line style="stroke:#a80036;stroke-width:1.5" x1="1330.313" x2="1330.313" y1="368.398" y2="388.398"/><polygon fill="#A80036" points="1326.313 378.398 1330.313 388.398 1334.313 378.398 1330.313 382.398" style="stroke:#a80036;stroke-width:1"/><line style="stroke:#a80036;stroke-width:1.5" x1="849.406" x2="530.5" y1="248.266" y2="248.266"/><line style="stroke:#a80036;stroke-width:1.5" x1="530.5" x2="530.5" y1="248.266" y2="270.266"/><polygon fill="#A80036" points="526.5 260.266 530.5 270.266 534.5 260.266 530.5 264.266" style="stroke:#a80036;stroke-width:1"/><line style="stroke:#a80036;stroke-width:1.5" x1="1011.406" x2="1330.313" y1="248.266" y2="248.266"/><line style="stroke:#a80036;stroke-width:1.5" x1="1330.313" x2="1330.313" y1="248.266" y2="270.266"/><polygon fill="#A80036" points="1326.313 260.266 1330.313 270.266 1334.313 260.266 1330.313 264.266" style="stroke:#a80036;stroke-width:1"/><line style="stroke:#a80036;stroke-width:1.5" x1="530.5" x2="530.5" y1="304.398" y2="839.93"/><line style="stroke:#a80036;stroke-width:1.5" x1="530.5" x2="918.406" y1="839.93" y2="839.93"/><polygon fill="#A80036" points="908.406 835.93 918.406 839.93 908.406 843.93 912.406 839.93" style="stroke:#a80036;stroke-width:1"/><line style="stroke:#a80036;stroke-width:1.5" x1="1330.313" x2="1330.313" y1="821.93" y2="839.93"/><line style="stroke:#a80036;stroke-width:1.5" x1="1330.313" x2="942.406" y1="839.93" y2="839.93"/><polygon fill="#A80036" points="952.406 835.93 942.406 839.93 952.406 843.93 948.406 839.93" style="stroke:#a80036;stroke-width:1"/><line style="stroke:#a80036;stroke-width:1.5" x1="446.703" x2="159" y1="214.266" y2="214.266"/><line style="stroke:#a80036;stroke-width:1.5" x1="159" x2="159" y1="214.266" y2="236.266"/><polygon fill="#A80036" points="155 226.266 159 236.266 163 226.266 159 230.266" style="stroke:#a80036;stroke-width:1"/><line style="stroke:#a80036;stroke-width:1.5" x1="642.703" x2="930.406" y1="214.266" y2="214.266"/><line style="stroke:#a80036;stroke-width:1.5" x1="930.406" x2="930.406" y1="214.266" y2="236.266"/><polygon fill="#A80036" points="926.406 226.266 930.406 236.266 934.406 226.266 930.406 230.266" style="stroke:#a80036;stroke-width:1"/><line style="stroke:#a80036;stroke-width:1.5" x1="159" x2="159" y1="687.752" y2="869.93"/><line style="stroke:#a80036;stroke-width:1.5" x1="159" x2="532.703" y1="869.93" y2="869.93"/><polygon fill="#A80036" points="522.703 865.93 532.703 869.93 522.703 873.93 526.703 869.93" style="stroke:#a80036;stroke-width:1"/><line style="stroke:#a80036;stroke-width:1.5" x1="930.406" x2="930.406" y1="851.93" y2="869.93"/><line style="stroke:#a80036;stroke-width:1.5" x1="930.406" x2="556.703" y1="869.93" y2="869.93"/><polygon fill="#A80036" points="566.703 865.93 556.703 869.93 566.703 873.93 562.703 869.93" style="stroke:#a80036;stroke-width:1"/><line style="stroke:#a80036;stroke-width:1.5" x1="544.703" x2="544.703" y1="182.266" y2="202.266"/><polygon fill="#A80036" points="540.703 192.266 544.703 202.266 548.703 192.266 544.703 196.266" style="stroke:#a80036;stroke-width:1"/><line style="stroke:#a80036;stroke-width:1.5" x1="544.703" x2="544.703" y1="881.93" y2="901.93"/><polygon fill="#A80036" points="540.703 891.93 544.703 901.93 548.703 891.93 544.703 895.93" style="stroke:#a80036;stroke-width:1"/><line style="stroke:#a80036;stroke-width:1.5" x1="544.703" x2="544.703" y1="128.133" y2="148.133"/><polygon fill="#A80036" points="540.703 138.133 544.703 148.133 548.703 138.133 544.703 142.133" style="stroke:#a80036;stroke-width:1"/><line style="stroke:#a80036;stroke-width:1.5" x1="615.203" x2="1773" y1="968.063" y2="968.063"/><polygon fill="#A80036" points="1769 544.598 1773 534.598 1777 544.598 1773 540.598" style="stroke:#a80036;stroke-width:1.5"/><line style="stroke:#a80036;stroke-width:1.5" x1="1773" x2="1773" y1="116.133" y2="968.063"/><line style="stroke:#a80036;stroke-width:1.5" x1="1773" x2="556.703" y1="116.133" y2="116.133"/><polygon fill="#A80036" points="566.703 112.133 556.703 116.133 566.703 120.133 562.703 116.133" style="stroke:#a80036;stroke-width:1"/><line style="stroke:#a80036;stroke-width:1.5" x1="544.703" x2="544.703" y1="936.063" y2="956.063"/><polygon fill="#A80036" points="540.703 946.063 544.703 956.063 548.703 946.063 544.703 950.063" style="stroke:#a80036;stroke-width:1"/><line style="stroke:#a80036;stroke-width:1.5" x1="544.703" x2="544.703" y1="84.133" y2="104.133"/><polygon fill="#A80036" points="540.703 94.133 544.703 104.133 548.703 94.133 544.703 98.133" style="stroke:#a80036;stroke-width:1"/><line style="stroke:#a80036;stroke-width:1.5" x1="492.703" x2="476.703" y1="1033.338" y2="1033.338"/><line style="stroke:#a80036;stroke-width:1.5" x1="476.703" x2="476.703" y1="1033.338" y2="1055.338"/><polygon fill="#A80036" points="472.703 1045.338 476.703 1055.338 480.703 1045.338 476.703 1049.338" style="stroke:#a80036;stroke-width:1"/><line style="stroke:#a80036;stroke-width:1.5" x1="596.703" x2="612.703" y1="1033.338" y2="1033.338"/><line style="stroke:#a80036;stroke-width:1.5" x1="612.703" x2="612.703" y1="1033.338" y2="1055.338"/><polygon fill="#A80036" points="608.703 1045.338 612.703 1055.338 616.703 1045.338 612.703 1049.338" style="stroke:#a80036;stroke-width:1"/><line style="stroke:#a80036;stroke-width:1.5" x1="476.703" x2="476.703" y1="1089.471" y2="1107.471"/><line style="stroke:#a80036;stroke-width:1.5" x1="476.703" x2="532.703" y1="1107.471" y2="1107.471"/><polygon fill="#A80036" points="522.703 1103.471 532.703 1107.471 522.703 1111.471 526.703 1107.471" style="stroke:#a80036;stroke-width:1"/><line style="stroke:#a80036;stroke-width:1.5" x1="612.703" x2="612.703" y1="1089.471" y2="1107.471"/><line style="stroke:#a80036;stroke-width:1.5" x1="612.703" x2="556.703" y1="1107.471" y2="1107.471"/><polygon fill="#A80036" points="566.703 1103.471 556.703 1107.471 566.703 1111.471 562.703 1107.471" style="stroke:#a80036;stroke-width:1"/><line style="stroke:#a80036;stroke-width:1.5" x1="544.703" x2="544.703" y1="980.063" y2="1021.338"/><polygon fill="#A80036" points="540.703 1011.338 544.703 1021.338 548.703 1011.338 544.703 1015.338" style="stroke:#a80036;stroke-width:1"/><text x="548.703" y="1001.518" fill="#000" font-family="sans-serif" font-size="11" lengthAdjust="spacingAndGlyphs" textLength="14">no</text><line style="stroke:#a80036;stroke-width:1.5" x1="544.703" x2="544.703" y1="1119.471" y2="1139.471"/><polygon fill="#A80036" points="540.703 1129.471 544.703 1139.471 548.703 1129.471 544.703 1133.471" style="stroke:#a80036;stroke-width:1"/></g></svg>